<svg id="visual" viewBox="0 0 900 600" width="900" height="600" xmlns="http://www.w3.org/2000/svg" xmlns:xlink="http://www.w3.org/1999/xlink" version="1.1"><rect x="0" y="0" width="900" height="600" fill="#FFFFFF"></rect><defs><linearGradient id="grad1_0" x1="33.3%" y1="0%" x2="100%" y2="100%"><stop offset="20%" stop-color="#ffffff" stop-opacity="1"></stop><stop offset="80%" stop-color="#ffffff" stop-opacity="1"></stop></linearGradient></defs><defs><linearGradient id="grad2_0" x1="0%" y1="0%" x2="66.7%" y2="100%"><stop offset="20%" stop-color="#ffffff" stop-opacity="1"></stop><stop offset="80%" stop-color="#ffffff" stop-opacity="1"></stop></linearGradient></defs><g transform="translate(900, 0)"><path d="M0 297.5C-39.7 289.2 -79.4 281 -107.9 260.5C-136.4 240.1 -153.8 207.4 -183.1 183.1C-212.5 158.9 -253.8 143 -274.8 113.8C-295.9 84.7 -296.7 42.4 -297.5 0L0 0Z" fill="#388E3C"></path></g><g transform="translate(0, 600)"><path d="M0 -297.5C33.7 -278.3 67.4 -259.1 101.4 -244.8C135.5 -230.6 169.9 -221.2 200.8 -200.8C231.8 -180.5 259.3 -149.1 274.8 -113.8C290.3 -78.5 293.9 -39.3 297.5 0L0 0Z" fill="#388E3C"></path></g></svg>