<svg id="visual" viewBox="0 0 900 600" width="900" height="600" xmlns="http://www.w3.org/2000/svg" xmlns:xlink="http://www.w3.org/1999/xlink" version="1.1"><rect x="0" y="0" width="900" height="600" fill="#FFFFFF"></rect><defs><linearGradient id="grad1_0" x1="33.3%" y1="100%" x2="100%" y2="0%"><stop offset="20%" stop-color="#ffffff" stop-opacity="1"></stop><stop offset="80%" stop-color="#ffffff" stop-opacity="1"></stop></linearGradient></defs><defs><linearGradient id="grad2_0" x1="0%" y1="100%" x2="66.7%" y2="0%"><stop offset="20%" stop-color="#ffffff" stop-opacity="1"></stop><stop offset="80%" stop-color="#ffffff" stop-opacity="1"></stop></linearGradient></defs><g transform="translate(900, 600)"><path d="M-297.5 0C-289.2 -39.7 -281 -79.4 -260.5 -107.9C-240.1 -136.4 -207.4 -153.8 -183.1 -183.1C-158.9 -212.5 -143 -253.8 -113.8 -274.8C-84.7 -295.9 -42.4 -296.7 0 -297.5L0 0Z" fill="#388E3C"></path></g><g transform="translate(0, 0)"><path d="M297.5 0C278.3 33.7 259.1 67.4 244.8 101.4C230.6 135.5 221.2 169.9 200.8 200.8C180.5 231.8 149.1 259.3 113.8 274.8C78.5 290.3 39.3 293.9 0 297.5L0 0Z" fill="#388E3C"></path></g></svg>