<svg width="1000" height="126" viewBox="0 0 1000 126" fill="none" xmlns="http://www.w3.org/2000/svg">
<g clip-path="url(#clip0_132_6229)">
<g clip-path="url(#clip1_132_6229)">
<g clip-path="url(#clip2_132_6229)">
<g clip-path="url(#clip3_132_6229)">
<g clip-path="url(#clip4_132_6229)">
<g clip-path="url(#clip5_132_6229)">
<path d="M80.7658 17.3304C79.5897 17.3304 78.3359 17.519 77.0044 17.8962C75.6729 18.2735 74.3525 19.0058 73.0432 20.0932C71.7561 21.1806 70.5023 22.6896 69.2818 24.6202C68.0613 26.5287 67.0072 29.0585 66.1195 32.2097C65.2097 35.3609 64.4884 39.1667 63.9558 43.6271C63.4232 48.0876 63.157 53.4136 63.157 59.605C63.157 65.7298 63.4232 71.0668 63.9558 75.616C64.4884 80.1653 65.2097 84.0599 66.1195 87.2998C67.0072 90.5619 68.0613 93.236 69.2818 95.322C70.5023 97.408 71.7561 99.0391 73.0432 100.215C74.3525 101.414 75.6729 102.246 77.0044 102.712C78.3359 103.178 79.5897 103.411 80.7658 103.411C82.408 103.411 83.9281 103.056 85.3262 102.346V71.2221C85.3262 70.3567 85.5148 69.5023 85.892 68.659C86.2693 67.8158 87.168 67.3941 88.5883 67.3941H97.1098C97.598 67.3941 98.0862 67.4274 98.5744 67.494C99.0626 67.5384 99.4954 67.6826 99.8726 67.9267C100.25 68.1708 100.549 68.5481 100.771 69.0585C100.993 69.5689 101.104 70.2901 101.104 71.2221V117.857C101.104 118.789 100.993 119.511 100.771 120.021C100.549 120.531 100.25 120.909 99.8726 121.153C99.4954 121.397 99.0626 121.552 98.5744 121.619C98.0862 121.663 97.598 121.685 97.1098 121.685H88.5883C87.8782 121.685 87.3234 121.574 86.9239 121.353C86.5023 121.131 86.1694 120.831 85.9253 120.454C85.6812 120.076 85.5259 119.666 85.4593 119.222C85.3705 118.756 85.3262 118.301 85.3262 117.857V115.494C83.5952 116.759 81.6757 117.957 79.5675 119.089C77.4593 120.221 75.1403 121.219 72.6105 122.085C70.1029 122.95 67.3844 123.627 64.4551 124.115C61.5259 124.604 58.3747 124.848 55.0016 124.848C51.0515 124.848 46.9905 124.493 42.8185 123.782C38.6466 123.095 34.5966 121.841 30.6688 120.021C26.7409 118.201 23.0238 115.727 19.5176 112.598C15.9891 109.447 12.9045 105.463 10.2638 100.648C7.64518 95.8102 5.57029 90.0183 4.03908 83.2721C2.48568 76.5259 1.70898 68.6369 1.70898 59.605C1.70898 51.9045 2.48568 45.114 4.03908 39.2333C5.57029 33.3525 7.66737 28.2485 10.3303 23.9212C12.9711 19.5939 16.0668 15.9656 19.6174 13.0363C23.1681 10.1071 26.9517 7.76586 30.9683 6.01274C34.9628 4.23743 39.0904 2.98362 43.3511 2.2513C47.6119 1.51898 51.7728 1.15283 55.8338 1.15283C60.2721 1.15283 64.4995 1.50789 68.5162 2.21802C72.5106 2.92814 76.1833 3.82689 79.5342 4.91426C82.8629 6.00164 85.8255 7.22218 88.4219 8.57585C91.0182 9.92953 93.1597 11.2499 94.8463 12.537C95.0016 12.7145 95.1902 12.8921 95.4121 13.0696C95.6341 13.2693 95.745 13.5023 95.745 13.7686C95.745 13.9906 95.6562 14.2568 95.4787 14.5675L91.9836 20.0932C91.6729 20.5814 91.2956 20.8255 90.8518 20.8255C90.5411 20.8255 90.0973 20.648 89.5203 20.2929C88.9434 19.9378 88.2221 19.5384 87.3567 19.0946C86.4912 18.6286 85.5148 18.218 84.4274 17.8629C83.34 17.5079 82.1195 17.3304 80.7658 17.3304ZM49.4094 59.605C49.4094 65.8407 49.7201 71.2998 50.3414 75.9822C50.9628 80.6646 51.8282 84.7256 52.9378 88.1653C54.0474 91.6049 55.3456 94.4787 56.8324 96.7866C58.3414 99.0723 59.9392 100.97 61.6257 102.479C63.3345 103.966 65.0987 105.108 66.9184 105.907C68.7381 106.728 70.5467 107.361 72.3442 107.805C71.745 107.472 70.9239 106.939 69.8809 106.207C68.8601 105.475 67.7395 104.398 66.5189 102.978C65.2984 101.58 64.0779 99.7381 62.8574 97.4524C61.6368 95.1888 60.5273 92.3373 59.5287 88.8976C58.53 85.4579 57.7201 81.3414 57.0987 76.5481C56.4773 71.7547 56.1667 66.107 56.1667 59.605C56.1667 53.1473 56.4773 47.555 57.0987 42.8283C57.7201 38.0793 58.53 34.0405 59.5287 30.7118C60.5273 27.3831 61.6368 24.6535 62.8574 22.5231C64.0779 20.415 65.2984 18.7173 66.5189 17.4302C67.7395 16.1209 68.8601 15.1556 69.8809 14.5342C70.9239 13.9129 71.745 13.4136 72.3442 13.0363C70.5467 13.458 68.7381 14.0349 66.9184 14.7673C65.0987 15.4996 63.3345 16.5648 61.6257 17.9628C59.9392 19.3387 58.3414 21.1029 56.8324 23.2555C55.3456 25.4302 54.0474 28.1708 52.9378 31.4774C51.8282 34.7839 50.9628 38.7339 50.3414 43.3276C49.7201 47.9434 49.4094 53.3692 49.4094 59.605ZM199.334 121.852L187.95 99.5827C185.909 100.715 183.812 101.658 181.659 102.412C179.529 103.189 177.321 103.821 175.035 104.31V110.401C175.035 112.132 174.846 113.685 174.469 115.061C174.092 116.437 173.426 117.613 172.472 118.59C171.54 119.566 170.297 120.332 168.744 120.886C167.19 121.419 165.248 121.685 162.918 121.685H126.935C124.339 121.685 122.219 121.441 120.577 120.953C118.957 120.465 117.692 119.766 116.782 118.856C115.85 117.924 115.229 116.759 114.918 115.361C114.585 113.941 114.419 112.287 114.419 110.401V16.365C114.419 14.4566 114.585 12.8033 114.918 11.4052C115.229 10.0072 115.85 8.83105 116.782 7.87683C117.692 6.9226 118.957 6.20137 120.577 5.71316C122.219 5.22495 124.339 4.98084 126.935 4.98084H163.185C167.09 4.98084 170.918 5.30262 174.669 5.94617C178.441 6.61191 182.014 7.6549 185.387 9.07515C188.782 10.5176 191.9 12.4372 194.741 14.8338C197.581 17.2083 200.045 20.1376 202.131 23.6216C204.217 27.1279 205.848 31.2111 207.024 35.8713C208.178 40.5314 208.755 45.8907 208.755 51.9489C208.755 57.1639 208.433 61.8796 207.789 66.0959C207.146 70.3345 206.258 74.1514 205.126 77.5467C203.972 80.9642 202.597 83.9933 200.999 86.6341C199.401 89.2527 197.626 91.5606 195.673 93.5578L211.95 115.028C212.483 115.782 212.749 116.515 212.749 117.225C212.749 118.024 212.461 118.723 211.884 119.322C211.329 119.921 210.719 120.409 210.053 120.787L205.193 123.649C204.816 123.849 204.427 124.015 204.028 124.149C203.606 124.304 203.185 124.382 202.763 124.382C202.164 124.382 201.565 124.182 200.965 123.782C200.366 123.405 199.823 122.762 199.334 121.852ZM197.304 53.4136C197.304 48.5314 196.871 44.0377 196.006 39.9323C195.14 35.8047 193.809 32.1764 192.011 29.0474C190.236 25.8962 187.939 23.2887 185.121 21.2249C182.303 19.1833 178.941 17.7742 175.035 16.9975V93.6576C178.941 92.7922 182.303 91.2055 185.121 88.8976C187.939 86.5897 190.236 83.7048 192.011 80.2429C193.809 76.7811 195.14 72.7866 196.006 68.2596C196.871 63.7326 197.304 58.7839 197.304 53.4136ZM168.144 109.669V15.7991C167.057 15.7326 165.925 15.6882 164.749 15.666C163.595 15.6438 162.608 15.6327 161.787 15.6327V114.862C163.096 114.862 164.15 114.817 164.949 114.728C165.77 114.662 166.425 114.451 166.913 114.096C167.401 113.741 167.723 113.219 167.878 112.531C168.056 111.866 168.144 110.911 168.144 109.669ZM312.71 45.7908H282.452V111.699C287.712 110.945 292.538 110.268 296.932 109.669C298.774 109.38 300.627 109.114 302.491 108.87C304.377 108.626 306.097 108.404 307.651 108.204C309.226 107.982 310.58 107.816 311.712 107.705C312.866 107.594 313.653 107.538 314.075 107.538C315.007 107.538 315.795 107.716 316.438 108.071C317.082 108.426 317.404 109.147 317.404 110.235V117.691C317.404 118.667 317.16 119.577 316.671 120.42C316.183 121.264 315.018 121.685 313.176 121.685H234.186C231.656 121.685 229.592 121.441 227.995 120.953C226.397 120.465 225.132 119.766 224.2 118.856C223.268 117.924 222.646 116.759 222.336 115.361C222.003 113.941 221.837 112.287 221.837 110.401V19.1279C221.837 16.0433 222.192 13.5689 222.902 11.7048C223.612 9.81856 224.61 8.37613 225.898 7.37751C227.207 6.3789 228.771 5.73536 230.591 5.44687C232.389 5.13619 234.408 4.98084 236.649 4.98084H310.114C311.956 4.98084 313.132 5.40248 313.642 6.24575C314.153 7.08903 314.408 8.02106 314.408 9.04187V14.8338C314.408 15.899 314.119 16.6091 313.542 16.9642C312.988 17.3193 312.244 17.4968 311.312 17.4968C310.78 17.4968 309.959 17.4413 308.849 17.3304C307.739 17.2194 306.452 17.0752 304.988 16.8976C303.523 16.6979 301.947 16.4871 300.261 16.2652C298.574 16.0654 296.899 15.8324 295.235 15.5661C291.329 14.967 287.068 14.279 282.452 13.5023V34.1736H312.71C313.842 34.1736 314.408 34.7395 314.408 35.8713V43.9933C314.408 45.1916 313.842 45.7908 312.71 45.7908ZM275.562 112.665V12.3706L269.237 11.4718V113.463L275.562 112.665ZM419.063 45.7908H388.838V111.699C394.097 110.945 398.924 110.268 403.318 109.669C405.16 109.38 407.013 109.114 408.877 108.87C410.741 108.626 412.461 108.404 414.036 108.204C415.612 107.982 416.965 107.816 418.097 107.705C419.229 107.594 420.017 107.538 420.461 107.538C421.37 107.538 422.158 107.716 422.824 108.071C423.468 108.426 423.789 109.147 423.789 110.235V117.691C423.789 118.667 423.545 119.577 423.057 120.42C422.569 121.264 421.404 121.685 419.562 121.685H340.572C338.02 121.685 335.945 121.441 334.347 120.953C332.749 120.465 331.495 119.766 330.585 118.856C329.653 117.924 329.021 116.759 328.688 115.361C328.377 113.941 328.222 112.287 328.222 110.401V19.1279C328.222 16.0433 328.566 13.5689 329.254 11.7048C329.964 9.81856 330.974 8.37613 332.283 7.37751C333.57 6.3789 335.124 5.73536 336.943 5.44687C338.763 5.13619 340.782 4.98084 343.002 4.98084H416.466C418.308 4.98084 419.484 5.40248 419.995 6.24575C420.527 7.08903 420.793 8.02106 420.793 9.04187V14.8338C420.793 15.899 420.505 16.6091 419.928 16.9642C419.351 17.3193 418.608 17.4968 417.698 17.4968C417.143 17.4968 416.311 17.4413 415.201 17.3304C414.092 17.2194 412.805 17.0752 411.34 16.8976C409.875 16.6979 408.311 16.4871 406.646 16.2652C404.96 16.0654 403.273 15.8324 401.587 15.5661C397.703 14.967 393.454 14.279 388.838 13.5023V34.1736H419.063C420.216 34.1736 420.793 34.7395 420.793 35.8713V43.9933C420.793 45.1916 420.216 45.7908 419.063 45.7908ZM381.947 112.665V12.3706L375.59 11.4718V113.463L381.947 112.665ZM518.058 4.98084H527.811C528.832 4.98084 529.753 5.30262 530.574 5.94617C531.373 6.61191 531.773 7.86573 531.773 9.70761V115.66C531.773 119.677 529.875 121.685 526.08 121.685H497.886C496.111 121.685 494.635 121.33 493.459 120.62C492.305 119.932 491.262 119.122 490.33 118.19L448.721 74.7173C449.209 81.752 449.698 88.2208 450.186 94.1237C450.341 96.6757 450.53 99.1944 450.752 101.68C450.974 104.187 451.162 106.518 451.318 108.67C451.495 110.845 451.651 112.742 451.784 114.362C451.917 116.004 452.006 117.169 452.05 117.857C452.161 118.789 452.017 119.655 451.617 120.454C451.196 121.275 450.264 121.685 448.821 121.685H438.569C437.592 121.685 436.682 121.375 435.839 120.753C434.996 120.132 434.574 118.9 434.574 117.058V11.0058C434.574 6.98916 436.793 4.98084 441.232 4.98084H468.727C470.768 4.98084 472.488 5.41358 473.886 6.27905C475.262 7.14451 476.649 8.28736 478.047 9.70761L517.626 48.9531C517.093 42.4954 516.605 36.537 516.161 31.0779C515.961 28.7478 515.761 26.4177 515.562 24.0876C515.384 21.7575 515.207 19.5717 515.029 17.5301C514.874 15.5107 514.73 13.7353 514.596 12.2041C514.463 10.6951 514.363 9.56337 514.297 8.80886C514.186 7.9434 514.363 7.08903 514.829 6.24575C515.295 5.40248 516.372 4.98084 518.058 4.98084ZM517.626 58.7728L472.455 14.0016C471.479 13.0252 470.68 12.415 470.058 12.1708C469.437 11.9267 468.583 11.8047 467.495 11.8047H461.737L517.626 67.3941V58.7728ZM596.616 110.401V16.365C596.616 14.4566 596.782 12.8033 597.115 11.4052C597.426 10.0072 598.047 8.83105 598.979 7.87683C599.889 6.9226 601.165 6.20137 602.807 5.71316C604.427 5.22495 606.535 4.98084 609.132 4.98084H645.381C649.11 4.98084 652.816 5.21386 656.499 5.67988C660.183 6.1459 663.723 6.9115 667.118 7.97668C670.491 9.06406 673.631 10.4732 676.538 12.2041C679.445 13.9573 681.964 16.1209 684.094 18.6951C686.247 21.2471 687.933 24.2541 689.154 27.7159C690.352 31.1556 690.951 35.1168 690.951 39.5994C690.951 46.2568 690.053 51.8823 688.255 56.476C686.435 61.0474 683.983 64.8199 680.899 67.7936C677.814 70.7894 674.219 73.064 670.114 74.6174C666.03 76.193 661.736 77.3359 657.232 78.046V108.504C657.232 109.769 657.121 111.156 656.899 112.665C656.699 114.174 656.166 115.594 655.301 116.925C654.435 118.257 653.104 119.377 651.307 120.287C649.509 121.219 647.046 121.685 643.917 121.685H609.132C606.535 121.685 604.427 121.441 602.807 120.953C601.165 120.465 599.889 119.766 598.979 118.856C598.047 117.924 597.426 116.759 597.115 115.361C596.782 113.941 596.616 112.287 596.616 110.401ZM679.501 40.831C679.501 37.5689 679.068 34.5731 678.202 31.8435C677.337 29.114 676.017 26.7173 674.241 24.6535C672.444 22.5897 670.136 20.881 667.318 19.5273C664.499 18.1736 661.137 17.2527 657.232 16.7645V67.2277C661.137 66.6285 664.499 65.5522 667.318 63.9988C670.136 62.4233 672.444 60.4704 674.241 58.1403C676.017 55.8102 677.337 53.1695 678.202 50.218C679.068 47.2665 679.501 44.1376 679.501 40.831ZM650.341 109.669V15.7991C649.254 15.7326 648.122 15.6882 646.946 15.666C645.792 15.6438 644.804 15.6327 643.983 15.6327V114.862C645.293 114.862 646.358 114.817 647.179 114.728C647.978 114.662 648.621 114.451 649.11 114.096C649.598 113.741 649.92 113.219 650.075 112.531C650.252 111.866 650.341 110.911 650.341 109.669ZM728.333 4.98084H740.449C741.426 4.98084 742.269 5.10289 742.979 5.347C743.667 5.5911 744.3 6.01274 744.877 6.61191C745.453 7.21108 745.986 7.99887 746.474 8.97529C746.962 9.95171 747.473 11.139 748.006 12.537L785.32 112.165C785.587 112.942 785.775 113.619 785.886 114.196C785.997 114.795 786.053 115.394 786.053 115.993C786.053 117.946 785.465 119.377 784.288 120.287C783.134 121.219 781.903 121.685 780.594 121.685H734.524C733.104 121.685 731.928 121.508 730.996 121.153C730.042 120.798 729.243 120.376 728.599 119.888C727.933 119.4 727.423 118.889 727.068 118.357C726.735 117.802 726.513 117.314 726.402 116.892L725.503 114.063H702.669L702.103 116.493C701.925 117.291 701.736 118.002 701.537 118.623C701.315 119.267 701.037 119.81 700.705 120.254C700.394 120.72 699.95 121.075 699.373 121.319C698.796 121.563 698.053 121.685 697.143 121.685H688.754C687.024 121.685 686.158 121.009 686.158 119.655C686.158 119.167 686.258 118.579 686.458 117.891C686.635 117.225 686.89 116.426 687.223 115.494L721.176 12.7034C721.997 10.1514 722.918 8.25407 723.939 7.01135C724.982 5.76864 726.447 5.0918 728.333 4.98084ZM713.72 72.2873L705.165 104.043H722.741L713.72 72.2873ZM777.897 111.999L741.348 14.4011C740.904 13.2693 740.372 12.5592 739.75 12.2707C739.129 11.96 738.064 11.8047 736.555 11.8047H733.692L772.139 114.862H776.033C777.01 114.862 777.675 114.662 778.03 114.262C778.386 113.841 778.341 113.086 777.897 111.999ZM803.428 110.401V16.8643C799.9 17.6188 796.649 18.2957 793.675 18.8948C792.366 19.1611 791.079 19.4052 789.814 19.6272C788.549 19.8269 787.34 20.0266 786.186 20.2263C785.054 20.4039 784.044 20.5481 783.157 20.6591C782.247 20.77 781.581 20.8255 781.159 20.8255C780.227 20.8255 779.451 20.648 778.829 20.2929C778.208 19.9378 777.897 19.2277 777.897 18.1625V9.04187C777.897 8.02106 778.33 7.08903 779.195 6.24575C780.061 5.40248 781.415 4.98084 783.257 4.98084H884.116C885.958 4.98084 887.312 5.40248 888.177 6.24575C889.043 7.08903 889.476 8.02106 889.476 9.04187V18.1625C889.476 19.2277 889.165 19.9378 888.544 20.2929C887.922 20.648 887.157 20.8255 886.247 20.8255C885.759 20.8255 885.082 20.77 884.216 20.6591C883.351 20.5481 882.341 20.4039 881.187 20.2263C880.055 20.0266 878.857 19.8269 877.592 19.6272C876.305 19.4052 875.018 19.1611 873.731 18.8948C870.735 18.2957 867.484 17.6188 863.978 16.8643V110.567C863.978 112.409 863.811 114.018 863.478 115.394C863.146 116.77 862.535 117.935 861.648 118.889C860.76 119.821 859.528 120.52 857.953 120.986C856.377 121.452 854.369 121.685 851.928 121.685H815.678C813.148 121.685 811.085 121.441 809.487 120.953C807.889 120.465 806.635 119.766 805.725 118.856C804.838 117.924 804.227 116.759 803.895 115.361C803.584 113.941 803.428 112.287 803.428 110.401ZM857.054 109.669V15.1334L850.729 13.7686V114.862C852.017 114.862 853.071 114.817 853.892 114.728C854.713 114.662 855.367 114.451 855.856 114.096C856.344 113.741 856.666 113.219 856.821 112.531C856.976 111.866 857.054 110.911 857.054 109.669ZM973.026 117.857V79.1112H959.212V108.504C959.212 109.769 959.101 111.156 958.879 112.665C958.657 114.174 958.114 115.594 957.248 116.925C956.383 118.257 955.062 119.377 953.287 120.287C951.489 121.219 949.015 121.685 945.864 121.685H911.079C908.483 121.685 906.374 121.441 904.754 120.953C903.134 120.465 901.858 119.766 900.926 118.856C900.017 117.924 899.395 116.759 899.062 115.361C898.73 113.941 898.563 112.287 898.563 110.401V16.365C898.563 14.4566 898.73 12.8033 899.062 11.4052C899.395 10.0072 900.017 8.83105 900.926 7.87683C901.858 6.9226 903.134 6.20137 904.754 5.71316C906.374 5.22495 908.483 4.98084 911.079 4.98084H947.329C950.48 4.98084 952.877 5.44687 954.519 6.3789C956.183 7.28875 957.348 8.4316 958.014 9.80747C958.702 11.2055 959.068 12.6702 959.112 14.2014C959.179 15.7548 959.212 17.175 959.212 18.4621V67.3941H973.026V8.80886C973.026 7.87682 973.27 7.01136 973.759 6.21247C974.247 5.39139 975.19 4.98084 976.588 4.98084H985.043C985.531 4.98084 986.008 5.01414 986.474 5.08071C986.94 5.12509 987.34 5.26933 987.673 5.51343C988.028 5.75754 988.305 6.13479 988.505 6.64519C988.682 7.1556 988.771 7.87682 988.771 8.80886V67.3941H996.594C997.725 67.3941 998.291 67.96 998.291 69.0918V77.3137C998.291 78.512 997.725 79.1112 996.594 79.1112H988.771V117.857C988.771 118.789 988.682 119.511 988.505 120.021C988.305 120.531 988.028 120.909 987.673 121.153C987.34 121.397 986.94 121.552 986.474 121.619C986.008 121.663 985.531 121.685 985.043 121.685H976.355C974.935 121.685 974.025 121.275 973.625 120.454C973.226 119.655 973.026 118.789 973.026 117.857ZM952.288 109.669V16.9975C952.288 15.8213 952.211 14.8782 952.055 14.1681C951.9 13.458 951.578 12.9254 951.09 12.5703C950.602 12.2374 949.947 12.0266 949.126 11.9378C948.305 11.8491 947.251 11.8047 945.964 11.8047V114.862C947.251 114.862 948.305 114.817 949.126 114.728C949.947 114.662 950.602 114.451 951.09 114.096C951.578 113.741 951.9 113.219 952.055 112.531C952.211 111.866 952.288 110.911 952.288 109.669Z" fill="white"/>
</g>
</g>
</g>
</g>
</g>
</g>
<defs>
<clipPath id="clip0_132_6229">
<rect width="996.71" height="123.695" fill="white" transform="translate(1.64453 1.15283)"/>
</clipPath>
<clipPath id="clip1_132_6229">
<rect width="996.71" height="123.695" fill="white" transform="translate(1.64453 1.15283)"/>
</clipPath>
<clipPath id="clip2_132_6229">
<rect width="996.71" height="123.695" fill="white" transform="translate(1.64453 1.15283)"/>
</clipPath>
<clipPath id="clip3_132_6229">
<rect width="996.71" height="123.695" fill="white" transform="translate(1.64453 1.15283)"/>
</clipPath>
<clipPath id="clip4_132_6229">
<rect width="996.71" height="123.695" fill="white" transform="translate(1.64453 1.15283)"/>
</clipPath>
<clipPath id="clip5_132_6229">
<rect width="996.71" height="123.695" fill="white" transform="translate(1.64453 1.15283)"/>
</clipPath>
</defs>
</svg>
