<?xml version="1.0" standalone="no"?>
<svg xmlns:xlink="http://www.w3.org/1999/xlink" id="wave" style="transform:rotate(180deg); transition: 0.3s" viewBox="0 0 1440 490" version="1.1" xmlns="http://www.w3.org/2000/svg"><defs><linearGradient id="sw-gradient-0" x1="0" x2="0" y1="1" y2="0"><stop stop-color="rgba(139, 195, 74, 1)" offset="0%"/><stop stop-color="rgba(139, 195, 74, 1)" offset="100%"/></linearGradient></defs><path style="transform:translate(0, 0px); opacity:1" fill="url(#sw-gradient-0)" d="M0,49L80,81.7C160,114,320,180,480,187.8C640,196,800,147,960,171.5C1120,196,1280,294,1440,294C1600,294,1760,196,1920,163.3C2080,131,2240,163,2400,147C2560,131,2720,65,2880,57.2C3040,49,3200,98,3360,114.3C3520,131,3680,114,3840,114.3C4000,114,4160,131,4320,114.3C4480,98,4640,49,4800,49C4960,49,5120,98,5280,163.3C5440,229,5600,310,5760,285.8C5920,261,6080,131,6240,73.5C6400,16,6560,33,6720,40.8C6880,49,7040,49,7200,89.8C7360,131,7520,212,7680,269.5C7840,327,8000,359,8160,375.7C8320,392,8480,392,8640,383.8C8800,376,8960,359,9120,326.7C9280,294,9440,245,9600,196C9760,147,9920,98,10080,98C10240,98,10400,147,10560,179.7C10720,212,10880,229,11040,204.2C11200,180,11360,114,11440,81.7L11520,49L11520,490L11440,490C11360,490,11200,490,11040,490C10880,490,10720,490,10560,490C10400,490,10240,490,10080,490C9920,490,9760,490,9600,490C9440,490,9280,490,9120,490C8960,490,8800,490,8640,490C8480,490,8320,490,8160,490C8000,490,7840,490,7680,490C7520,490,7360,490,7200,490C7040,490,6880,490,6720,490C6560,490,6400,490,6240,490C6080,490,5920,490,5760,490C5600,490,5440,490,5280,490C5120,490,4960,490,4800,490C4640,490,4480,490,4320,490C4160,490,4000,490,3840,490C3680,490,3520,490,3360,490C3200,490,3040,490,2880,490C2720,490,2560,490,2400,490C2240,490,2080,490,1920,490C1760,490,1600,490,1440,490C1280,490,1120,490,960,490C800,490,640,490,480,490C320,490,160,490,80,490L0,490Z"/><defs><linearGradient id="sw-gradient-1" x1="0" x2="0" y1="1" y2="0"><stop stop-color="rgba(56, 142, 60, 1)" offset="0%"/><stop stop-color="rgba(56, 142, 60, 1)" offset="100%"/></linearGradient></defs><path style="transform:translate(0, 50px); opacity:0.9" fill="url(#sw-gradient-1)" d="M0,147L80,130.7C160,114,320,82,480,106.2C640,131,800,212,960,269.5C1120,327,1280,359,1440,334.8C1600,310,1760,229,1920,220.5C2080,212,2240,278,2400,253.2C2560,229,2720,114,2880,114.3C3040,114,3200,229,3360,294C3520,359,3680,376,3840,367.5C4000,359,4160,327,4320,318.5C4480,310,4640,327,4800,326.7C4960,327,5120,310,5280,326.7C5440,343,5600,392,5760,392C5920,392,6080,343,6240,277.7C6400,212,6560,131,6720,130.7C6880,131,7040,212,7200,220.5C7360,229,7520,163,7680,130.7C7840,98,8000,98,8160,122.5C8320,147,8480,196,8640,220.5C8800,245,8960,245,9120,220.5C9280,196,9440,147,9600,163.3C9760,180,9920,261,10080,318.5C10240,376,10400,408,10560,424.7C10720,441,10880,441,11040,432.8C11200,425,11360,408,11440,400.2L11520,392L11520,490L11440,490C11360,490,11200,490,11040,490C10880,490,10720,490,10560,490C10400,490,10240,490,10080,490C9920,490,9760,490,9600,490C9440,490,9280,490,9120,490C8960,490,8800,490,8640,490C8480,490,8320,490,8160,490C8000,490,7840,490,7680,490C7520,490,7360,490,7200,490C7040,490,6880,490,6720,490C6560,490,6400,490,6240,490C6080,490,5920,490,5760,490C5600,490,5440,490,5280,490C5120,490,4960,490,4800,490C4640,490,4480,490,4320,490C4160,490,4000,490,3840,490C3680,490,3520,490,3360,490C3200,490,3040,490,2880,490C2720,490,2560,490,2400,490C2240,490,2080,490,1920,490C1760,490,1600,490,1440,490C1280,490,1120,490,960,490C800,490,640,490,480,490C320,490,160,490,80,490L0,490Z"/></svg>